<mxfile host="Electron" modified="2023-10-11T17:07:53.885Z" agent="Mozilla/5.0 (X11; Linux x86_64) AppleWebKit/537.36 (KHTML, like Gecko) draw.io/21.2.8 Chrome/112.0.5615.165 Electron/24.2.0 Safari/537.36" etag="fxoTdG_A0wihICpCHvle" version="21.2.8" type="device">
  <diagram name="PÃ¡gina-1" id="SvRP-1oFVG1JVI0qtUEA">
    <mxGraphModel dx="2232" dy="1168" grid="1" gridSize="10" guides="1" tooltips="1" connect="1" arrows="1" fold="1" page="1" pageScale="1" pageWidth="3300" pageHeight="2339" math="0" shadow="0">
      <root>
        <mxCell id="0" />
        <mxCell id="1" parent="0" />
        <mxCell id="0f4xCiVm6X6gQx0xvUL8-81" style="edgeStyle=orthogonalEdgeStyle;rounded=0;orthogonalLoop=1;jettySize=auto;html=1;exitX=0.5;exitY=1;exitDx=0;exitDy=0;entryX=0.5;entryY=0;entryDx=0;entryDy=0;" edge="1" parent="1" target="0f4xCiVm6X6gQx0xvUL8-80">
          <mxGeometry relative="1" as="geometry">
            <mxPoint x="680" y="100" as="sourcePoint" />
          </mxGeometry>
        </mxCell>
        <mxCell id="0f4xCiVm6X6gQx0xvUL8-10" style="edgeStyle=orthogonalEdgeStyle;rounded=0;orthogonalLoop=1;jettySize=auto;html=1;exitX=1;exitY=0.5;exitDx=0;exitDy=0;entryX=0;entryY=0.5;entryDx=0;entryDy=0;" edge="1" parent="1" target="0f4xCiVm6X6gQx0xvUL8-8">
          <mxGeometry relative="1" as="geometry">
            <mxPoint x="1070" y="650" as="sourcePoint" />
          </mxGeometry>
        </mxCell>
        <mxCell id="0f4xCiVm6X6gQx0xvUL8-78" style="edgeStyle=orthogonalEdgeStyle;rounded=0;orthogonalLoop=1;jettySize=auto;html=1;exitX=0.5;exitY=1;exitDx=0;exitDy=0;entryX=1;entryY=0.5;entryDx=0;entryDy=0;" edge="1" parent="1" source="0f4xCiVm6X6gQx0xvUL8-8" target="0f4xCiVm6X6gQx0xvUL8-22">
          <mxGeometry relative="1" as="geometry" />
        </mxCell>
        <mxCell id="0f4xCiVm6X6gQx0xvUL8-79" value="IP VALID" style="edgeLabel;html=1;align=center;verticalAlign=middle;resizable=0;points=[];" vertex="1" connectable="0" parent="0f4xCiVm6X6gQx0xvUL8-78">
          <mxGeometry x="-0.6424" y="3" relative="1" as="geometry">
            <mxPoint as="offset" />
          </mxGeometry>
        </mxCell>
        <mxCell id="0f4xCiVm6X6gQx0xvUL8-8" value="smartconfig" style="shape=process;whiteSpace=wrap;html=1;backgroundOutline=1;fillColor=#dae8fc;strokeColor=#6c8ebf;" vertex="1" parent="1">
          <mxGeometry x="1170" y="620" width="120" height="60" as="geometry" />
        </mxCell>
        <mxCell id="0f4xCiVm6X6gQx0xvUL8-18" style="edgeStyle=orthogonalEdgeStyle;rounded=0;orthogonalLoop=1;jettySize=auto;html=1;exitX=1;exitY=0.5;exitDx=0;exitDy=0;entryX=0;entryY=0.5;entryDx=0;entryDy=0;" edge="1" parent="1" source="0f4xCiVm6X6gQx0xvUL8-14" target="0f4xCiVm6X6gQx0xvUL8-17">
          <mxGeometry relative="1" as="geometry" />
        </mxCell>
        <mxCell id="0f4xCiVm6X6gQx0xvUL8-23" style="edgeStyle=orthogonalEdgeStyle;rounded=0;orthogonalLoop=1;jettySize=auto;html=1;exitX=0.5;exitY=1;exitDx=0;exitDy=0;entryX=0.5;entryY=0;entryDx=0;entryDy=0;" edge="1" parent="1" source="0f4xCiVm6X6gQx0xvUL8-14" target="0f4xCiVm6X6gQx0xvUL8-22">
          <mxGeometry relative="1" as="geometry" />
        </mxCell>
        <mxCell id="0f4xCiVm6X6gQx0xvUL8-24" value="IP VALID" style="edgeLabel;html=1;align=center;verticalAlign=middle;resizable=0;points=[];" vertex="1" connectable="0" parent="0f4xCiVm6X6gQx0xvUL8-23">
          <mxGeometry x="-0.2571" relative="1" as="geometry">
            <mxPoint as="offset" />
          </mxGeometry>
        </mxCell>
        <mxCell id="0f4xCiVm6X6gQx0xvUL8-237" style="edgeStyle=orthogonalEdgeStyle;rounded=0;orthogonalLoop=1;jettySize=auto;html=1;exitX=0;exitY=0.5;exitDx=0;exitDy=0;entryX=0;entryY=0.5;entryDx=0;entryDy=0;" edge="1" parent="1" source="0f4xCiVm6X6gQx0xvUL8-14" target="0f4xCiVm6X6gQx0xvUL8-70">
          <mxGeometry relative="1" as="geometry">
            <Array as="points">
              <mxPoint x="580" y="800" />
              <mxPoint x="580" y="1240" />
            </Array>
          </mxGeometry>
        </mxCell>
        <mxCell id="0f4xCiVm6X6gQx0xvUL8-14" value="CONNECTING WIFI" style="shape=process;whiteSpace=wrap;html=1;backgroundOutline=1;fillColor=#dae8fc;strokeColor=#6c8ebf;" vertex="1" parent="1">
          <mxGeometry x="620" y="770" width="120" height="60" as="geometry" />
        </mxCell>
        <mxCell id="0f4xCiVm6X6gQx0xvUL8-20" style="edgeStyle=orthogonalEdgeStyle;rounded=0;orthogonalLoop=1;jettySize=auto;html=1;exitX=0.5;exitY=0;exitDx=0;exitDy=0;entryX=0.592;entryY=0;entryDx=0;entryDy=0;entryPerimeter=0;" edge="1" parent="1" source="0f4xCiVm6X6gQx0xvUL8-17" target="0f4xCiVm6X6gQx0xvUL8-14">
          <mxGeometry relative="1" as="geometry" />
        </mxCell>
        <mxCell id="0f4xCiVm6X6gQx0xvUL8-21" value="NO IP" style="edgeLabel;html=1;align=center;verticalAlign=middle;resizable=0;points=[];" vertex="1" connectable="0" parent="0f4xCiVm6X6gQx0xvUL8-20">
          <mxGeometry x="0.1092" relative="1" as="geometry">
            <mxPoint as="offset" />
          </mxGeometry>
        </mxCell>
        <mxCell id="0f4xCiVm6X6gQx0xvUL8-25" style="edgeStyle=orthogonalEdgeStyle;rounded=0;orthogonalLoop=1;jettySize=auto;html=1;exitX=0.5;exitY=1;exitDx=0;exitDy=0;entryX=0.65;entryY=-0.033;entryDx=0;entryDy=0;entryPerimeter=0;" edge="1" parent="1" source="0f4xCiVm6X6gQx0xvUL8-17" target="0f4xCiVm6X6gQx0xvUL8-22">
          <mxGeometry relative="1" as="geometry" />
        </mxCell>
        <mxCell id="0f4xCiVm6X6gQx0xvUL8-26" value="IP VALID" style="edgeLabel;html=1;align=center;verticalAlign=middle;resizable=0;points=[];" vertex="1" connectable="0" parent="0f4xCiVm6X6gQx0xvUL8-25">
          <mxGeometry x="-0.2667" relative="1" as="geometry">
            <mxPoint as="offset" />
          </mxGeometry>
        </mxCell>
        <mxCell id="0f4xCiVm6X6gQx0xvUL8-17" value="ERROR_WIFI" style="rounded=1;whiteSpace=wrap;html=1;fillColor=#f8cecc;strokeColor=#b85450;" vertex="1" parent="1">
          <mxGeometry x="820" y="770" width="120" height="60" as="geometry" />
        </mxCell>
        <mxCell id="0f4xCiVm6X6gQx0xvUL8-64" style="edgeStyle=orthogonalEdgeStyle;rounded=0;orthogonalLoop=1;jettySize=auto;html=1;exitX=0.5;exitY=1;exitDx=0;exitDy=0;" edge="1" parent="1" source="0f4xCiVm6X6gQx0xvUL8-22" target="0f4xCiVm6X6gQx0xvUL8-63">
          <mxGeometry relative="1" as="geometry" />
        </mxCell>
        <mxCell id="0f4xCiVm6X6gQx0xvUL8-22" value="GET NTP" style="shape=process;whiteSpace=wrap;html=1;backgroundOutline=1;fillColor=#dae8fc;strokeColor=#6c8ebf;" vertex="1" parent="1">
          <mxGeometry x="620" y="920" width="120" height="60" as="geometry" />
        </mxCell>
        <mxCell id="0f4xCiVm6X6gQx0xvUL8-28" style="edgeStyle=orthogonalEdgeStyle;rounded=0;orthogonalLoop=1;jettySize=auto;html=1;exitX=0.75;exitY=0;exitDx=0;exitDy=0;entryX=1;entryY=0.5;entryDx=0;entryDy=0;curved=1;" edge="1" parent="1" source="0f4xCiVm6X6gQx0xvUL8-17" target="0f4xCiVm6X6gQx0xvUL8-17">
          <mxGeometry relative="1" as="geometry" />
        </mxCell>
        <mxCell id="0f4xCiVm6X6gQx0xvUL8-29" value="RETRY" style="edgeLabel;html=1;align=center;verticalAlign=middle;resizable=0;points=[];" vertex="1" connectable="0" parent="0f4xCiVm6X6gQx0xvUL8-28">
          <mxGeometry x="0.1714" y="-1" relative="1" as="geometry">
            <mxPoint as="offset" />
          </mxGeometry>
        </mxCell>
        <mxCell id="0f4xCiVm6X6gQx0xvUL8-30" style="edgeStyle=orthogonalEdgeStyle;rounded=0;orthogonalLoop=1;jettySize=auto;html=1;exitX=0.75;exitY=0;exitDx=0;exitDy=0;entryX=1;entryY=0.5;entryDx=0;entryDy=0;curved=1;" edge="1" parent="1" source="0f4xCiVm6X6gQx0xvUL8-8" target="0f4xCiVm6X6gQx0xvUL8-8">
          <mxGeometry relative="1" as="geometry" />
        </mxCell>
        <mxCell id="0f4xCiVm6X6gQx0xvUL8-31" value="RETRY" style="edgeLabel;html=1;align=center;verticalAlign=middle;resizable=0;points=[];" vertex="1" connectable="0" parent="0f4xCiVm6X6gQx0xvUL8-30">
          <mxGeometry x="-0.1571" y="-4" relative="1" as="geometry">
            <mxPoint as="offset" />
          </mxGeometry>
        </mxCell>
        <mxCell id="0f4xCiVm6X6gQx0xvUL8-37" style="edgeStyle=orthogonalEdgeStyle;rounded=0;orthogonalLoop=1;jettySize=auto;html=1;exitX=0.5;exitY=1;exitDx=0;exitDy=0;entryX=0.5;entryY=0;entryDx=0;entryDy=0;" edge="1" parent="1" source="0f4xCiVm6X6gQx0xvUL8-33" target="0f4xCiVm6X6gQx0xvUL8-36">
          <mxGeometry relative="1" as="geometry" />
        </mxCell>
        <mxCell id="0f4xCiVm6X6gQx0xvUL8-33" value="LECTURA TEMPERATURA" style="shape=process;whiteSpace=wrap;html=1;backgroundOutline=1;fillColor=#dae8fc;strokeColor=#6c8ebf;" vertex="1" parent="1">
          <mxGeometry x="380" y="590" width="120" height="60" as="geometry" />
        </mxCell>
        <mxCell id="0f4xCiVm6X6gQx0xvUL8-43" style="edgeStyle=orthogonalEdgeStyle;rounded=0;orthogonalLoop=1;jettySize=auto;html=1;exitX=0.5;exitY=1;exitDx=0;exitDy=0;entryX=0.5;entryY=0;entryDx=0;entryDy=0;" edge="1" parent="1" source="0f4xCiVm6X6gQx0xvUL8-36" target="0f4xCiVm6X6gQx0xvUL8-38">
          <mxGeometry relative="1" as="geometry" />
        </mxCell>
        <mxCell id="0f4xCiVm6X6gQx0xvUL8-47" style="edgeStyle=orthogonalEdgeStyle;rounded=0;orthogonalLoop=1;jettySize=auto;html=1;exitX=0;exitY=0.5;exitDx=0;exitDy=0;entryX=1;entryY=0.5;entryDx=0;entryDy=0;" edge="1" parent="1" source="0f4xCiVm6X6gQx0xvUL8-36" target="0f4xCiVm6X6gQx0xvUL8-48">
          <mxGeometry relative="1" as="geometry">
            <mxPoint x="300" y="800" as="targetPoint" />
          </mxGeometry>
        </mxCell>
        <mxCell id="0f4xCiVm6X6gQx0xvUL8-53" value="NO" style="edgeLabel;html=1;align=center;verticalAlign=middle;resizable=0;points=[];" vertex="1" connectable="0" parent="0f4xCiVm6X6gQx0xvUL8-47">
          <mxGeometry x="-0.24" y="-2" relative="1" as="geometry">
            <mxPoint as="offset" />
          </mxGeometry>
        </mxCell>
        <mxCell id="0f4xCiVm6X6gQx0xvUL8-36" value="LECTURA&lt;br&gt;CORRECTA?" style="rhombus;whiteSpace=wrap;html=1;fillColor=#dae8fc;strokeColor=#6c8ebf;" vertex="1" parent="1">
          <mxGeometry x="370" y="760" width="140" height="80" as="geometry" />
        </mxCell>
        <mxCell id="0f4xCiVm6X6gQx0xvUL8-55" style="edgeStyle=orthogonalEdgeStyle;rounded=0;orthogonalLoop=1;jettySize=auto;html=1;exitX=1;exitY=0.5;exitDx=0;exitDy=0;entryX=1;entryY=0.5;entryDx=0;entryDy=0;" edge="1" parent="1" source="0f4xCiVm6X6gQx0xvUL8-38" target="0f4xCiVm6X6gQx0xvUL8-33">
          <mxGeometry relative="1" as="geometry">
            <Array as="points">
              <mxPoint x="540" y="920" />
              <mxPoint x="540" y="620" />
            </Array>
          </mxGeometry>
        </mxCell>
        <mxCell id="0f4xCiVm6X6gQx0xvUL8-56" value="NUEVA LECTURA" style="edgeLabel;html=1;align=center;verticalAlign=middle;resizable=0;points=[];" vertex="1" connectable="0" parent="0f4xCiVm6X6gQx0xvUL8-55">
          <mxGeometry x="0.2053" y="-1" relative="1" as="geometry">
            <mxPoint x="-1" y="-21" as="offset" />
          </mxGeometry>
        </mxCell>
        <mxCell id="0f4xCiVm6X6gQx0xvUL8-131" style="edgeStyle=orthogonalEdgeStyle;rounded=0;orthogonalLoop=1;jettySize=auto;html=1;exitX=0.5;exitY=1;exitDx=0;exitDy=0;entryX=0.5;entryY=0;entryDx=0;entryDy=0;" edge="1" parent="1" source="0f4xCiVm6X6gQx0xvUL8-38" target="0f4xCiVm6X6gQx0xvUL8-130">
          <mxGeometry relative="1" as="geometry" />
        </mxCell>
        <mxCell id="0f4xCiVm6X6gQx0xvUL8-38" value="TEMPORIZADOR&lt;br&gt;LECTURA" style="shape=process;whiteSpace=wrap;html=1;backgroundOutline=1;fillColor=#dae8fc;strokeColor=#6c8ebf;" vertex="1" parent="1">
          <mxGeometry x="380" y="890" width="120" height="60" as="geometry" />
        </mxCell>
        <mxCell id="0f4xCiVm6X6gQx0xvUL8-51" style="edgeStyle=orthogonalEdgeStyle;rounded=0;orthogonalLoop=1;jettySize=auto;html=1;exitX=0.5;exitY=0;exitDx=0;exitDy=0;entryX=0.5;entryY=1;entryDx=0;entryDy=0;" edge="1" parent="1" source="0f4xCiVm6X6gQx0xvUL8-48" target="0f4xCiVm6X6gQx0xvUL8-50">
          <mxGeometry relative="1" as="geometry" />
        </mxCell>
        <mxCell id="0f4xCiVm6X6gQx0xvUL8-54" value="NO" style="edgeLabel;html=1;align=center;verticalAlign=middle;resizable=0;points=[];" vertex="1" connectable="0" parent="0f4xCiVm6X6gQx0xvUL8-51">
          <mxGeometry x="-0.6727" y="2" relative="1" as="geometry">
            <mxPoint as="offset" />
          </mxGeometry>
        </mxCell>
        <mxCell id="0f4xCiVm6X6gQx0xvUL8-60" style="edgeStyle=orthogonalEdgeStyle;rounded=0;orthogonalLoop=1;jettySize=auto;html=1;exitX=0.5;exitY=1;exitDx=0;exitDy=0;entryX=0.5;entryY=0;entryDx=0;entryDy=0;" edge="1" parent="1" source="0f4xCiVm6X6gQx0xvUL8-48" target="0f4xCiVm6X6gQx0xvUL8-59">
          <mxGeometry relative="1" as="geometry" />
        </mxCell>
        <mxCell id="0f4xCiVm6X6gQx0xvUL8-129" value="SI" style="edgeLabel;html=1;align=center;verticalAlign=middle;resizable=0;points=[];" vertex="1" connectable="0" parent="0f4xCiVm6X6gQx0xvUL8-60">
          <mxGeometry x="-0.2" y="2" relative="1" as="geometry">
            <mxPoint as="offset" />
          </mxGeometry>
        </mxCell>
        <mxCell id="0f4xCiVm6X6gQx0xvUL8-48" value="FALLO &amp;gt; N REINTENTOS?" style="rhombus;whiteSpace=wrap;html=1;fillColor=#dae8fc;strokeColor=#6c8ebf;" vertex="1" parent="1">
          <mxGeometry x="140" y="760" width="130" height="80" as="geometry" />
        </mxCell>
        <mxCell id="0f4xCiVm6X6gQx0xvUL8-52" style="edgeStyle=orthogonalEdgeStyle;rounded=0;orthogonalLoop=1;jettySize=auto;html=1;exitX=1;exitY=0.5;exitDx=0;exitDy=0;entryX=0;entryY=0.5;entryDx=0;entryDy=0;" edge="1" parent="1" source="0f4xCiVm6X6gQx0xvUL8-50" target="0f4xCiVm6X6gQx0xvUL8-33">
          <mxGeometry relative="1" as="geometry" />
        </mxCell>
        <mxCell id="0f4xCiVm6X6gQx0xvUL8-50" value="TEMPORIZADOR&lt;br&gt;REINTENTOS" style="shape=process;whiteSpace=wrap;html=1;backgroundOutline=1;fillColor=#dae8fc;strokeColor=#6c8ebf;" vertex="1" parent="1">
          <mxGeometry x="145" y="590" width="120" height="60" as="geometry" />
        </mxCell>
        <mxCell id="0f4xCiVm6X6gQx0xvUL8-62" style="edgeStyle=orthogonalEdgeStyle;rounded=0;orthogonalLoop=1;jettySize=auto;html=1;exitX=0;exitY=0.5;exitDx=0;exitDy=0;entryX=0;entryY=0.5;entryDx=0;entryDy=0;" edge="1" parent="1" source="0f4xCiVm6X6gQx0xvUL8-59" target="0f4xCiVm6X6gQx0xvUL8-50">
          <mxGeometry relative="1" as="geometry">
            <Array as="points">
              <mxPoint x="80" y="960" />
              <mxPoint x="80" y="620" />
            </Array>
          </mxGeometry>
        </mxCell>
        <mxCell id="0f4xCiVm6X6gQx0xvUL8-209" style="edgeStyle=orthogonalEdgeStyle;rounded=0;orthogonalLoop=1;jettySize=auto;html=1;exitX=0.5;exitY=1;exitDx=0;exitDy=0;entryX=0.5;entryY=0;entryDx=0;entryDy=0;" edge="1" parent="1" source="0f4xCiVm6X6gQx0xvUL8-59" target="0f4xCiVm6X6gQx0xvUL8-208">
          <mxGeometry relative="1" as="geometry" />
        </mxCell>
        <mxCell id="0f4xCiVm6X6gQx0xvUL8-59" value="ERROR_TERMOSTATO" style="rounded=1;whiteSpace=wrap;html=1;fillColor=#f8cecc;strokeColor=#b85450;shadow=1;" vertex="1" parent="1">
          <mxGeometry x="137.5" y="940" width="135" height="40" as="geometry" />
        </mxCell>
        <mxCell id="0f4xCiVm6X6gQx0xvUL8-67" style="edgeStyle=orthogonalEdgeStyle;rounded=0;orthogonalLoop=1;jettySize=auto;html=1;exitX=1;exitY=0.5;exitDx=0;exitDy=0;entryX=0;entryY=0.5;entryDx=0;entryDy=0;" edge="1" parent="1" source="0f4xCiVm6X6gQx0xvUL8-63" target="0f4xCiVm6X6gQx0xvUL8-66">
          <mxGeometry relative="1" as="geometry" />
        </mxCell>
        <mxCell id="0f4xCiVm6X6gQx0xvUL8-69" value="NO" style="edgeLabel;html=1;align=center;verticalAlign=middle;resizable=0;points=[];" vertex="1" connectable="0" parent="0f4xCiVm6X6gQx0xvUL8-67">
          <mxGeometry x="-0.2857" y="3" relative="1" as="geometry">
            <mxPoint as="offset" />
          </mxGeometry>
        </mxCell>
        <mxCell id="0f4xCiVm6X6gQx0xvUL8-63" value="NTP OK?" style="rhombus;whiteSpace=wrap;html=1;fillColor=#dae8fc;strokeColor=#6c8ebf;" vertex="1" parent="1">
          <mxGeometry x="610" y="1070" width="140" height="80" as="geometry" />
        </mxCell>
        <mxCell id="0f4xCiVm6X6gQx0xvUL8-197" style="edgeStyle=orthogonalEdgeStyle;rounded=0;orthogonalLoop=1;jettySize=auto;html=1;exitX=1;exitY=0.5;exitDx=0;exitDy=0;entryX=0;entryY=0.5;entryDx=0;entryDy=0;" edge="1" parent="1" source="0f4xCiVm6X6gQx0xvUL8-66" target="0f4xCiVm6X6gQx0xvUL8-196">
          <mxGeometry relative="1" as="geometry" />
        </mxCell>
        <mxCell id="0f4xCiVm6X6gQx0xvUL8-66" value="ERROR_NTP" style="rounded=1;whiteSpace=wrap;html=1;fillColor=#f8cecc;strokeColor=#b85450;shadow=1;" vertex="1" parent="1">
          <mxGeometry x="890" y="1090" width="100" height="40" as="geometry" />
        </mxCell>
        <mxCell id="0f4xCiVm6X6gQx0xvUL8-72" style="edgeStyle=orthogonalEdgeStyle;rounded=0;orthogonalLoop=1;jettySize=auto;html=1;exitX=0.5;exitY=1;exitDx=0;exitDy=0;entryX=0.5;entryY=0;entryDx=0;entryDy=0;" edge="1" parent="1" source="0f4xCiVm6X6gQx0xvUL8-70" target="0f4xCiVm6X6gQx0xvUL8-71">
          <mxGeometry relative="1" as="geometry" />
        </mxCell>
        <mxCell id="0f4xCiVm6X6gQx0xvUL8-70" value="CONNECT MQTT" style="shape=process;whiteSpace=wrap;html=1;backgroundOutline=1;fillColor=#dae8fc;strokeColor=#6c8ebf;" vertex="1" parent="1">
          <mxGeometry x="620" y="1210" width="120" height="60" as="geometry" />
        </mxCell>
        <mxCell id="0f4xCiVm6X6gQx0xvUL8-74" style="edgeStyle=orthogonalEdgeStyle;rounded=0;orthogonalLoop=1;jettySize=auto;html=1;exitX=1;exitY=0.5;exitDx=0;exitDy=0;entryX=0;entryY=0.5;entryDx=0;entryDy=0;" edge="1" parent="1" source="0f4xCiVm6X6gQx0xvUL8-71" target="0f4xCiVm6X6gQx0xvUL8-73">
          <mxGeometry relative="1" as="geometry" />
        </mxCell>
        <mxCell id="0f4xCiVm6X6gQx0xvUL8-75" value="NO" style="edgeLabel;html=1;align=center;verticalAlign=middle;resizable=0;points=[];" vertex="1" connectable="0" parent="0f4xCiVm6X6gQx0xvUL8-74">
          <mxGeometry x="-0.1857" y="-1" relative="1" as="geometry">
            <mxPoint as="offset" />
          </mxGeometry>
        </mxCell>
        <mxCell id="0f4xCiVm6X6gQx0xvUL8-136" style="edgeStyle=orthogonalEdgeStyle;rounded=0;orthogonalLoop=1;jettySize=auto;html=1;exitX=0.5;exitY=1;exitDx=0;exitDy=0;entryX=0.5;entryY=0;entryDx=0;entryDy=0;" edge="1" parent="1" source="0f4xCiVm6X6gQx0xvUL8-71" target="0f4xCiVm6X6gQx0xvUL8-134">
          <mxGeometry relative="1" as="geometry" />
        </mxCell>
        <mxCell id="0f4xCiVm6X6gQx0xvUL8-71" value="MQTT OK?" style="rhombus;whiteSpace=wrap;html=1;fillColor=#dae8fc;strokeColor=#6c8ebf;" vertex="1" parent="1">
          <mxGeometry x="610" y="1340" width="140" height="80" as="geometry" />
        </mxCell>
        <mxCell id="0f4xCiVm6X6gQx0xvUL8-222" style="edgeStyle=orthogonalEdgeStyle;rounded=0;orthogonalLoop=1;jettySize=auto;html=1;exitX=0.5;exitY=0;exitDx=0;exitDy=0;entryX=1;entryY=0.5;entryDx=0;entryDy=0;" edge="1" parent="1" source="0f4xCiVm6X6gQx0xvUL8-73" target="0f4xCiVm6X6gQx0xvUL8-70">
          <mxGeometry relative="1" as="geometry" />
        </mxCell>
        <mxCell id="0f4xCiVm6X6gQx0xvUL8-223" value="RETRY" style="edgeLabel;html=1;align=center;verticalAlign=middle;resizable=0;points=[];" vertex="1" connectable="0" parent="0f4xCiVm6X6gQx0xvUL8-222">
          <mxGeometry x="0.2527" y="-3" relative="1" as="geometry">
            <mxPoint as="offset" />
          </mxGeometry>
        </mxCell>
        <mxCell id="0f4xCiVm6X6gQx0xvUL8-73" value="ERROR_MQTT" style="rounded=1;whiteSpace=wrap;html=1;fillColor=#f8cecc;strokeColor=#b85450;shadow=1;" vertex="1" parent="1">
          <mxGeometry x="890" y="1360" width="100" height="40" as="geometry" />
        </mxCell>
        <mxCell id="0f4xCiVm6X6gQx0xvUL8-83" style="edgeStyle=orthogonalEdgeStyle;rounded=0;orthogonalLoop=1;jettySize=auto;html=1;exitX=0;exitY=0.5;exitDx=0;exitDy=0;entryX=1;entryY=0.5;entryDx=0;entryDy=0;" edge="1" parent="1" source="0f4xCiVm6X6gQx0xvUL8-80" target="0f4xCiVm6X6gQx0xvUL8-82">
          <mxGeometry relative="1" as="geometry" />
        </mxCell>
        <mxCell id="0f4xCiVm6X6gQx0xvUL8-84" value="NO OK" style="edgeLabel;html=1;align=center;verticalAlign=middle;resizable=0;points=[];" vertex="1" connectable="0" parent="0f4xCiVm6X6gQx0xvUL8-83">
          <mxGeometry x="0.1571" y="-1" relative="1" as="geometry">
            <mxPoint as="offset" />
          </mxGeometry>
        </mxCell>
        <mxCell id="0f4xCiVm6X6gQx0xvUL8-86" style="edgeStyle=orthogonalEdgeStyle;rounded=0;orthogonalLoop=1;jettySize=auto;html=1;exitX=0.5;exitY=1;exitDx=0;exitDy=0;entryX=0.5;entryY=0;entryDx=0;entryDy=0;" edge="1" parent="1" source="0f4xCiVm6X6gQx0xvUL8-80" target="0f4xCiVm6X6gQx0xvUL8-85">
          <mxGeometry relative="1" as="geometry" />
        </mxCell>
        <mxCell id="0f4xCiVm6X6gQx0xvUL8-89" value="OK" style="edgeLabel;html=1;align=center;verticalAlign=middle;resizable=0;points=[];" vertex="1" connectable="0" parent="0f4xCiVm6X6gQx0xvUL8-86">
          <mxGeometry x="-0.22" relative="1" as="geometry">
            <mxPoint as="offset" />
          </mxGeometry>
        </mxCell>
        <mxCell id="0f4xCiVm6X6gQx0xvUL8-80" value="INIT_NVS" style="shape=process;whiteSpace=wrap;html=1;backgroundOutline=1;fillColor=#dae8fc;strokeColor=#6c8ebf;" vertex="1" parent="1">
          <mxGeometry x="620" y="160" width="120" height="60" as="geometry" />
        </mxCell>
        <mxCell id="0f4xCiVm6X6gQx0xvUL8-138" style="edgeStyle=orthogonalEdgeStyle;rounded=0;orthogonalLoop=1;jettySize=auto;html=1;exitX=0;exitY=0.25;exitDx=0;exitDy=0;entryX=1;entryY=0;entryDx=0;entryDy=0;curved=1;" edge="1" parent="1" source="0f4xCiVm6X6gQx0xvUL8-82" target="0f4xCiVm6X6gQx0xvUL8-100">
          <mxGeometry relative="1" as="geometry" />
        </mxCell>
        <mxCell id="0f4xCiVm6X6gQx0xvUL8-82" value="ERROR_NVS" style="rounded=1;whiteSpace=wrap;html=1;fillColor=#f8cecc;strokeColor=#b85450;shadow=1;" vertex="1" parent="1">
          <mxGeometry x="380" y="170" width="100" height="40" as="geometry" />
        </mxCell>
        <mxCell id="0f4xCiVm6X6gQx0xvUL8-103" style="edgeStyle=orthogonalEdgeStyle;rounded=0;orthogonalLoop=1;jettySize=auto;html=1;exitX=0;exitY=0.5;exitDx=0;exitDy=0;" edge="1" parent="1" source="0f4xCiVm6X6gQx0xvUL8-85" target="0f4xCiVm6X6gQx0xvUL8-102">
          <mxGeometry relative="1" as="geometry" />
        </mxCell>
        <mxCell id="0f4xCiVm6X6gQx0xvUL8-104" value="NO OK" style="edgeLabel;html=1;align=center;verticalAlign=middle;resizable=0;points=[];" vertex="1" connectable="0" parent="0f4xCiVm6X6gQx0xvUL8-103">
          <mxGeometry x="-0.1571" y="-1" relative="1" as="geometry">
            <mxPoint as="offset" />
          </mxGeometry>
        </mxCell>
        <mxCell id="0f4xCiVm6X6gQx0xvUL8-113" style="edgeStyle=orthogonalEdgeStyle;rounded=0;orthogonalLoop=1;jettySize=auto;html=1;exitX=0.5;exitY=1;exitDx=0;exitDy=0;entryX=0.5;entryY=0;entryDx=0;entryDy=0;" edge="1" parent="1" source="0f4xCiVm6X6gQx0xvUL8-85" target="0f4xCiVm6X6gQx0xvUL8-112">
          <mxGeometry relative="1" as="geometry" />
        </mxCell>
        <mxCell id="0f4xCiVm6X6gQx0xvUL8-116" value="OK" style="edgeLabel;html=1;align=center;verticalAlign=middle;resizable=0;points=[];" vertex="1" connectable="0" parent="0f4xCiVm6X6gQx0xvUL8-113">
          <mxGeometry x="-0.25" y="2" relative="1" as="geometry">
            <mxPoint as="offset" />
          </mxGeometry>
        </mxCell>
        <mxCell id="0f4xCiVm6X6gQx0xvUL8-85" value="INIT APP" style="shape=process;whiteSpace=wrap;html=1;backgroundOutline=1;fillColor=#dae8fc;strokeColor=#6c8ebf;" vertex="1" parent="1">
          <mxGeometry x="620" y="320" width="120" height="60" as="geometry" />
        </mxCell>
        <mxCell id="0f4xCiVm6X6gQx0xvUL8-94" style="edgeStyle=orthogonalEdgeStyle;rounded=0;orthogonalLoop=1;jettySize=auto;html=1;exitX=1;exitY=0.5;exitDx=0;exitDy=0;entryX=0;entryY=0.5;entryDx=0;entryDy=0;" edge="1" parent="1" source="0f4xCiVm6X6gQx0xvUL8-92">
          <mxGeometry relative="1" as="geometry">
            <mxPoint x="970" y="650" as="targetPoint" />
          </mxGeometry>
        </mxCell>
        <mxCell id="0f4xCiVm6X6gQx0xvUL8-96" value="SI" style="edgeLabel;html=1;align=center;verticalAlign=middle;resizable=0;points=[];" vertex="1" connectable="0" parent="0f4xCiVm6X6gQx0xvUL8-94">
          <mxGeometry x="-0.2364" relative="1" as="geometry">
            <mxPoint as="offset" />
          </mxGeometry>
        </mxCell>
        <mxCell id="0f4xCiVm6X6gQx0xvUL8-95" style="edgeStyle=orthogonalEdgeStyle;rounded=0;orthogonalLoop=1;jettySize=auto;html=1;exitX=0.5;exitY=1;exitDx=0;exitDy=0;entryX=0.5;entryY=0;entryDx=0;entryDy=0;" edge="1" parent="1" source="0f4xCiVm6X6gQx0xvUL8-92" target="0f4xCiVm6X6gQx0xvUL8-14">
          <mxGeometry relative="1" as="geometry" />
        </mxCell>
        <mxCell id="0f4xCiVm6X6gQx0xvUL8-97" value="NO" style="edgeLabel;html=1;align=center;verticalAlign=middle;resizable=0;points=[];" vertex="1" connectable="0" parent="0f4xCiVm6X6gQx0xvUL8-95">
          <mxGeometry x="-0.25" y="4" relative="1" as="geometry">
            <mxPoint as="offset" />
          </mxGeometry>
        </mxCell>
        <mxCell id="0f4xCiVm6X6gQx0xvUL8-92" value="FACTORY?" style="rhombus;whiteSpace=wrap;html=1;fillColor=#dae8fc;strokeColor=#6c8ebf;" vertex="1" parent="1">
          <mxGeometry x="610" y="610" width="140" height="80" as="geometry" />
        </mxCell>
        <mxCell id="0f4xCiVm6X6gQx0xvUL8-98" value="STARTING" style="ellipse;whiteSpace=wrap;html=1;fillColor=#fff2cc;strokeColor=#d6b656;" vertex="1" parent="1">
          <mxGeometry x="625" y="50" width="110" height="60" as="geometry" />
        </mxCell>
        <mxCell id="0f4xCiVm6X6gQx0xvUL8-139" style="edgeStyle=orthogonalEdgeStyle;rounded=0;orthogonalLoop=1;jettySize=auto;html=1;exitX=0.5;exitY=0;exitDx=0;exitDy=0;entryX=0.5;entryY=1;entryDx=0;entryDy=0;" edge="1" parent="1" source="0f4xCiVm6X6gQx0xvUL8-100" target="0f4xCiVm6X6gQx0xvUL8-107">
          <mxGeometry relative="1" as="geometry" />
        </mxCell>
        <mxCell id="0f4xCiVm6X6gQx0xvUL8-100" value="ERROR_APP" style="ellipse;whiteSpace=wrap;html=1;fillColor=#fff2cc;strokeColor=#d6b656;" vertex="1" parent="1">
          <mxGeometry x="100" y="260" width="110" height="60" as="geometry" />
        </mxCell>
        <mxCell id="0f4xCiVm6X6gQx0xvUL8-141" style="edgeStyle=orthogonalEdgeStyle;rounded=0;orthogonalLoop=1;jettySize=auto;html=1;exitX=0;exitY=0.5;exitDx=0;exitDy=0;entryX=1;entryY=0.5;entryDx=0;entryDy=0;curved=1;" edge="1" parent="1" source="0f4xCiVm6X6gQx0xvUL8-102" target="0f4xCiVm6X6gQx0xvUL8-100">
          <mxGeometry relative="1" as="geometry" />
        </mxCell>
        <mxCell id="0f4xCiVm6X6gQx0xvUL8-102" value="ERROR_APP" style="rounded=1;whiteSpace=wrap;html=1;fillColor=#f8cecc;strokeColor=#b85450;shadow=1;" vertex="1" parent="1">
          <mxGeometry x="380" y="330" width="100" height="40" as="geometry" />
        </mxCell>
        <mxCell id="0f4xCiVm6X6gQx0xvUL8-107" value="SCREEN_ERROR" style="rounded=0;whiteSpace=wrap;html=1;fillColor=#e1d5e7;strokeColor=#9673a6;" vertex="1" parent="1">
          <mxGeometry x="95" y="70" width="120" height="60" as="geometry" />
        </mxCell>
        <mxCell id="0f4xCiVm6X6gQx0xvUL8-111" style="edgeStyle=orthogonalEdgeStyle;rounded=0;orthogonalLoop=1;jettySize=auto;html=1;exitX=0.5;exitY=0;exitDx=0;exitDy=0;entryX=0.5;entryY=1;entryDx=0;entryDy=0;" edge="1" parent="1" source="0f4xCiVm6X6gQx0xvUL8-109" target="0f4xCiVm6X6gQx0xvUL8-110">
          <mxGeometry relative="1" as="geometry" />
        </mxCell>
        <mxCell id="0f4xCiVm6X6gQx0xvUL8-109" value="FACTORY" style="ellipse;whiteSpace=wrap;html=1;fillColor=#fff2cc;strokeColor=#d6b656;" vertex="1" parent="1">
          <mxGeometry x="970" y="620" width="110" height="60" as="geometry" />
        </mxCell>
        <mxCell id="0f4xCiVm6X6gQx0xvUL8-247" style="edgeStyle=orthogonalEdgeStyle;rounded=0;orthogonalLoop=1;jettySize=auto;html=1;exitX=0.5;exitY=0;exitDx=0;exitDy=0;entryX=0.388;entryY=1.025;entryDx=0;entryDy=0;entryPerimeter=0;" edge="1" parent="1" source="0f4xCiVm6X6gQx0xvUL8-110" target="0f4xCiVm6X6gQx0xvUL8-246">
          <mxGeometry relative="1" as="geometry" />
        </mxCell>
        <mxCell id="0f4xCiVm6X6gQx0xvUL8-110" value="SCREEN FACTORY" style="rounded=0;whiteSpace=wrap;html=1;fillColor=#e1d5e7;strokeColor=#9673a6;" vertex="1" parent="1">
          <mxGeometry x="965" y="460" width="120" height="60" as="geometry" />
        </mxCell>
        <mxCell id="0f4xCiVm6X6gQx0xvUL8-117" style="edgeStyle=orthogonalEdgeStyle;rounded=0;orthogonalLoop=1;jettySize=auto;html=1;exitX=0;exitY=0.5;exitDx=0;exitDy=0;" edge="1" parent="1" source="0f4xCiVm6X6gQx0xvUL8-112" target="0f4xCiVm6X6gQx0xvUL8-115">
          <mxGeometry relative="1" as="geometry" />
        </mxCell>
        <mxCell id="0f4xCiVm6X6gQx0xvUL8-123" value="NO OK" style="edgeLabel;html=1;align=center;verticalAlign=middle;resizable=0;points=[];" vertex="1" connectable="0" parent="0f4xCiVm6X6gQx0xvUL8-117">
          <mxGeometry x="0.1538" y="-4" relative="1" as="geometry">
            <mxPoint x="5" y="4" as="offset" />
          </mxGeometry>
        </mxCell>
        <mxCell id="0f4xCiVm6X6gQx0xvUL8-121" style="edgeStyle=orthogonalEdgeStyle;rounded=0;orthogonalLoop=1;jettySize=auto;html=1;exitX=1;exitY=0.5;exitDx=0;exitDy=0;entryX=0;entryY=0.5;entryDx=0;entryDy=0;" edge="1" parent="1" source="0f4xCiVm6X6gQx0xvUL8-112" target="0f4xCiVm6X6gQx0xvUL8-120">
          <mxGeometry relative="1" as="geometry" />
        </mxCell>
        <mxCell id="0f4xCiVm6X6gQx0xvUL8-122" style="edgeStyle=orthogonalEdgeStyle;rounded=0;orthogonalLoop=1;jettySize=auto;html=1;exitX=0.5;exitY=1;exitDx=0;exitDy=0;entryX=0.5;entryY=0;entryDx=0;entryDy=0;" edge="1" parent="1" source="0f4xCiVm6X6gQx0xvUL8-112" target="0f4xCiVm6X6gQx0xvUL8-92">
          <mxGeometry relative="1" as="geometry" />
        </mxCell>
        <mxCell id="0f4xCiVm6X6gQx0xvUL8-124" value="OK" style="edgeLabel;html=1;align=center;verticalAlign=middle;resizable=0;points=[];" vertex="1" connectable="0" parent="0f4xCiVm6X6gQx0xvUL8-122">
          <mxGeometry x="0.2667" y="1" relative="1" as="geometry">
            <mxPoint as="offset" />
          </mxGeometry>
        </mxCell>
        <mxCell id="0f4xCiVm6X6gQx0xvUL8-126" style="edgeStyle=orthogonalEdgeStyle;rounded=0;orthogonalLoop=1;jettySize=auto;html=1;exitX=0.5;exitY=1;exitDx=0;exitDy=0;entryX=0.5;entryY=0;entryDx=0;entryDy=0;" edge="1" parent="1" source="0f4xCiVm6X6gQx0xvUL8-112" target="0f4xCiVm6X6gQx0xvUL8-33">
          <mxGeometry relative="1" as="geometry" />
        </mxCell>
        <mxCell id="0f4xCiVm6X6gQx0xvUL8-127" value="OK" style="edgeLabel;html=1;align=center;verticalAlign=middle;resizable=0;points=[];" vertex="1" connectable="0" parent="0f4xCiVm6X6gQx0xvUL8-126">
          <mxGeometry x="-0.071" y="-3" relative="1" as="geometry">
            <mxPoint as="offset" />
          </mxGeometry>
        </mxCell>
        <mxCell id="0f4xCiVm6X6gQx0xvUL8-112" value="INIT_SCREEN" style="shape=process;whiteSpace=wrap;html=1;backgroundOutline=1;fillColor=#dae8fc;strokeColor=#6c8ebf;" vertex="1" parent="1">
          <mxGeometry x="620" y="460" width="120" height="60" as="geometry" />
        </mxCell>
        <mxCell id="0f4xCiVm6X6gQx0xvUL8-119" style="edgeStyle=orthogonalEdgeStyle;rounded=0;orthogonalLoop=1;jettySize=auto;html=1;exitX=0;exitY=0.5;exitDx=0;exitDy=0;curved=1;entryX=0.5;entryY=1;entryDx=0;entryDy=0;" edge="1" parent="1" source="0f4xCiVm6X6gQx0xvUL8-115" target="0f4xCiVm6X6gQx0xvUL8-100">
          <mxGeometry relative="1" as="geometry">
            <mxPoint x="100" y="370" as="targetPoint" />
          </mxGeometry>
        </mxCell>
        <mxCell id="0f4xCiVm6X6gQx0xvUL8-115" value="ERROR_APP" style="rounded=1;whiteSpace=wrap;html=1;fillColor=#f8cecc;strokeColor=#b85450;shadow=1;" vertex="1" parent="1">
          <mxGeometry x="390" y="470" width="100" height="40" as="geometry" />
        </mxCell>
        <mxCell id="0f4xCiVm6X6gQx0xvUL8-120" value="MAIN SCREEN" style="rounded=0;whiteSpace=wrap;html=1;fillColor=#e1d5e7;strokeColor=#9673a6;" vertex="1" parent="1">
          <mxGeometry x="790" y="460" width="120" height="60" as="geometry" />
        </mxCell>
        <mxCell id="0f4xCiVm6X6gQx0xvUL8-130" value="UPDATE TEMPERATURE" style="rounded=0;whiteSpace=wrap;html=1;fillColor=#e1d5e7;strokeColor=#9673a6;" vertex="1" parent="1">
          <mxGeometry x="380" y="1020" width="120" height="60" as="geometry" />
        </mxCell>
        <mxCell id="0f4xCiVm6X6gQx0xvUL8-143" style="edgeStyle=orthogonalEdgeStyle;rounded=0;orthogonalLoop=1;jettySize=auto;html=1;exitX=1;exitY=0.5;exitDx=0;exitDy=0;" edge="1" parent="1" source="0f4xCiVm6X6gQx0xvUL8-134" target="0f4xCiVm6X6gQx0xvUL8-142">
          <mxGeometry relative="1" as="geometry" />
        </mxCell>
        <mxCell id="0f4xCiVm6X6gQx0xvUL8-134" value="GESTION_PROGRAMAS&lt;br&gt;CADA SEGUNDO" style="shape=process;whiteSpace=wrap;html=1;backgroundOutline=1;fillColor=#dae8fc;strokeColor=#6c8ebf;" vertex="1" parent="1">
          <mxGeometry x="585" y="1510" width="190" height="60" as="geometry" />
        </mxCell>
        <mxCell id="0f4xCiVm6X6gQx0xvUL8-145" style="edgeStyle=orthogonalEdgeStyle;rounded=0;orthogonalLoop=1;jettySize=auto;html=1;exitX=0.5;exitY=1;exitDx=0;exitDy=0;entryX=0.5;entryY=0;entryDx=0;entryDy=0;" edge="1" parent="1" source="0f4xCiVm6X6gQx0xvUL8-142" target="0f4xCiVm6X6gQx0xvUL8-144">
          <mxGeometry relative="1" as="geometry" />
        </mxCell>
        <mxCell id="0f4xCiVm6X6gQx0xvUL8-142" value="CHECK_PROGRAMS" style="ellipse;whiteSpace=wrap;html=1;fillColor=#fff2cc;strokeColor=#d6b656;" vertex="1" parent="1">
          <mxGeometry x="1050" y="1510" width="130" height="60" as="geometry" />
        </mxCell>
        <mxCell id="0f4xCiVm6X6gQx0xvUL8-147" style="edgeStyle=orthogonalEdgeStyle;rounded=0;orthogonalLoop=1;jettySize=auto;html=1;exitX=1;exitY=0.5;exitDx=0;exitDy=0;" edge="1" parent="1" source="0f4xCiVm6X6gQx0xvUL8-144" target="0f4xCiVm6X6gQx0xvUL8-146">
          <mxGeometry relative="1" as="geometry" />
        </mxCell>
        <mxCell id="0f4xCiVm6X6gQx0xvUL8-148" value="0 PROGRAMAS" style="edgeLabel;html=1;align=center;verticalAlign=middle;resizable=0;points=[];" vertex="1" connectable="0" parent="0f4xCiVm6X6gQx0xvUL8-147">
          <mxGeometry x="-0.3337" y="-3" relative="1" as="geometry">
            <mxPoint x="46" y="-3" as="offset" />
          </mxGeometry>
        </mxCell>
        <mxCell id="0f4xCiVm6X6gQx0xvUL8-162" style="edgeStyle=orthogonalEdgeStyle;rounded=0;orthogonalLoop=1;jettySize=auto;html=1;exitX=0.5;exitY=1;exitDx=0;exitDy=0;entryX=0.5;entryY=0;entryDx=0;entryDy=0;" edge="1" parent="1" source="0f4xCiVm6X6gQx0xvUL8-163">
          <mxGeometry relative="1" as="geometry">
            <mxPoint x="1115" y="1830" as="targetPoint" />
          </mxGeometry>
        </mxCell>
        <mxCell id="0f4xCiVm6X6gQx0xvUL8-144" value="CALCULAR&lt;br&gt;PROGRAMA&lt;br&gt;ACTIVO" style="shape=process;whiteSpace=wrap;html=1;backgroundOutline=1;fillColor=#dae8fc;strokeColor=#6c8ebf;" vertex="1" parent="1">
          <mxGeometry x="1055" y="1660" width="120" height="60" as="geometry" />
        </mxCell>
        <mxCell id="0f4xCiVm6X6gQx0xvUL8-146" value="NO_PROGRAMAS" style="ellipse;whiteSpace=wrap;html=1;fillColor=#fff2cc;strokeColor=#d6b656;" vertex="1" parent="1">
          <mxGeometry x="1410" y="1660" width="130" height="60" as="geometry" />
        </mxCell>
        <mxCell id="0f4xCiVm6X6gQx0xvUL8-166" style="edgeStyle=orthogonalEdgeStyle;rounded=0;orthogonalLoop=1;jettySize=auto;html=1;exitX=0.5;exitY=1;exitDx=0;exitDy=0;entryX=0.5;entryY=0;entryDx=0;entryDy=0;" edge="1" parent="1" source="0f4xCiVm6X6gQx0xvUL8-163" target="0f4xCiVm6X6gQx0xvUL8-165">
          <mxGeometry relative="1" as="geometry" />
        </mxCell>
        <mxCell id="0f4xCiVm6X6gQx0xvUL8-168" style="edgeStyle=orthogonalEdgeStyle;rounded=0;orthogonalLoop=1;jettySize=auto;html=1;exitX=0.5;exitY=1;exitDx=0;exitDy=0;entryX=0.5;entryY=0;entryDx=0;entryDy=0;" edge="1" parent="1" source="0f4xCiVm6X6gQx0xvUL8-165" target="0f4xCiVm6X6gQx0xvUL8-167">
          <mxGeometry relative="1" as="geometry" />
        </mxCell>
        <mxCell id="0f4xCiVm6X6gQx0xvUL8-191" style="edgeStyle=orthogonalEdgeStyle;rounded=0;orthogonalLoop=1;jettySize=auto;html=1;exitX=1;exitY=0.5;exitDx=0;exitDy=0;entryX=0;entryY=0.5;entryDx=0;entryDy=0;" edge="1" parent="1" source="0f4xCiVm6X6gQx0xvUL8-165" target="0f4xCiVm6X6gQx0xvUL8-179">
          <mxGeometry relative="1" as="geometry" />
        </mxCell>
        <mxCell id="0f4xCiVm6X6gQx0xvUL8-193" style="edgeStyle=orthogonalEdgeStyle;rounded=0;orthogonalLoop=1;jettySize=auto;html=1;exitX=0;exitY=0.5;exitDx=0;exitDy=0;entryX=1;entryY=0.5;entryDx=0;entryDy=0;" edge="1" parent="1" source="0f4xCiVm6X6gQx0xvUL8-165" target="0f4xCiVm6X6gQx0xvUL8-192">
          <mxGeometry relative="1" as="geometry" />
        </mxCell>
        <mxCell id="0f4xCiVm6X6gQx0xvUL8-165" value="START_SCHEDULE" style="rounded=0;whiteSpace=wrap;html=1;shadow=1;fillColor=#dae8fc;strokeColor=#6c8ebf;" vertex="1" parent="1">
          <mxGeometry x="1055" y="1940" width="120" height="60" as="geometry" />
        </mxCell>
        <mxCell id="0f4xCiVm6X6gQx0xvUL8-171" style="edgeStyle=orthogonalEdgeStyle;rounded=0;orthogonalLoop=1;jettySize=auto;html=1;exitX=0.5;exitY=1;exitDx=0;exitDy=0;entryX=0.5;entryY=0;entryDx=0;entryDy=0;" edge="1" parent="1" source="0f4xCiVm6X6gQx0xvUL8-167" target="0f4xCiVm6X6gQx0xvUL8-170">
          <mxGeometry relative="1" as="geometry" />
        </mxCell>
        <mxCell id="0f4xCiVm6X6gQx0xvUL8-167" value="TEMPORIZADOR&lt;br&gt;INTERMEDIO" style="shape=process;whiteSpace=wrap;html=1;backgroundOutline=1;shadow=1;fillColor=#dae8fc;strokeColor=#6c8ebf;" vertex="1" parent="1">
          <mxGeometry x="1055" y="2040" width="120" height="60" as="geometry" />
        </mxCell>
        <mxCell id="0f4xCiVm6X6gQx0xvUL8-173" style="edgeStyle=orthogonalEdgeStyle;rounded=0;orthogonalLoop=1;jettySize=auto;html=1;exitX=1;exitY=0.5;exitDx=0;exitDy=0;" edge="1" parent="1" source="0f4xCiVm6X6gQx0xvUL8-170">
          <mxGeometry relative="1" as="geometry">
            <mxPoint x="1050" y="2070" as="targetPoint" />
            <Array as="points">
              <mxPoint x="1000" y="2188" />
              <mxPoint x="1000" y="2070" />
            </Array>
          </mxGeometry>
        </mxCell>
        <mxCell id="0f4xCiVm6X6gQx0xvUL8-212" style="edgeStyle=orthogonalEdgeStyle;rounded=0;orthogonalLoop=1;jettySize=auto;html=1;exitX=0;exitY=0.5;exitDx=0;exitDy=0;entryX=1;entryY=0.5;entryDx=0;entryDy=0;" edge="1" parent="1" source="0f4xCiVm6X6gQx0xvUL8-170" target="0f4xCiVm6X6gQx0xvUL8-142">
          <mxGeometry relative="1" as="geometry">
            <Array as="points">
              <mxPoint x="1260" y="2188" />
              <mxPoint x="1260" y="1540" />
            </Array>
          </mxGeometry>
        </mxCell>
        <mxCell id="0f4xCiVm6X6gQx0xvUL8-170" value="END_SCHEDULE" style="rhombus;whiteSpace=wrap;html=1;shadow=1;fillColor=#dae8fc;strokeColor=#6c8ebf;" vertex="1" parent="1">
          <mxGeometry x="1040" y="2148" width="150" height="80" as="geometry" />
        </mxCell>
        <mxCell id="0f4xCiVm6X6gQx0xvUL8-172" value="SI" style="text;html=1;align=center;verticalAlign=middle;resizable=0;points=[];autosize=1;strokeColor=none;fillColor=none;" vertex="1" parent="1">
          <mxGeometry x="1120" y="1860" width="30" height="30" as="geometry" />
        </mxCell>
        <mxCell id="0f4xCiVm6X6gQx0xvUL8-174" value="NO" style="text;html=1;align=center;verticalAlign=middle;resizable=0;points=[];autosize=1;strokeColor=none;fillColor=none;" vertex="1" parent="1">
          <mxGeometry x="950" y="2110" width="40" height="30" as="geometry" />
        </mxCell>
        <mxCell id="0f4xCiVm6X6gQx0xvUL8-177" value="SI" style="text;html=1;align=center;verticalAlign=middle;resizable=0;points=[];autosize=1;strokeColor=none;fillColor=none;" vertex="1" parent="1">
          <mxGeometry x="1220" y="2160" width="30" height="30" as="geometry" />
        </mxCell>
        <mxCell id="0f4xCiVm6X6gQx0xvUL8-178" style="edgeStyle=orthogonalEdgeStyle;rounded=0;orthogonalLoop=1;jettySize=auto;html=1;exitX=0.5;exitY=1;exitDx=0;exitDy=0;entryX=0.5;entryY=0;entryDx=0;entryDy=0;" edge="1" parent="1" source="0f4xCiVm6X6gQx0xvUL8-179" target="0f4xCiVm6X6gQx0xvUL8-181">
          <mxGeometry relative="1" as="geometry" />
        </mxCell>
        <mxCell id="0f4xCiVm6X6gQx0xvUL8-179" value="AUTO" style="ellipse;whiteSpace=wrap;html=1;fillColor=#fff2cc;strokeColor=#d6b656;" vertex="1" parent="1">
          <mxGeometry x="1530" y="1940" width="130" height="60" as="geometry" />
        </mxCell>
        <mxCell id="0f4xCiVm6X6gQx0xvUL8-180" style="edgeStyle=orthogonalEdgeStyle;rounded=0;orthogonalLoop=1;jettySize=auto;html=1;exitX=1;exitY=0.5;exitDx=0;exitDy=0;entryX=0;entryY=0.5;entryDx=0;entryDy=0;" edge="1" parent="1" source="0f4xCiVm6X6gQx0xvUL8-181" target="0f4xCiVm6X6gQx0xvUL8-182">
          <mxGeometry relative="1" as="geometry" />
        </mxCell>
        <mxCell id="0f4xCiVm6X6gQx0xvUL8-181" value="MODIFICACION&lt;br&gt;MANUAL&lt;br&gt;UMBRAL&lt;br&gt;TEMPERATURA" style="rounded=1;whiteSpace=wrap;html=1;shadow=1;fillColor=#dae8fc;strokeColor=#6c8ebf;" vertex="1" parent="1">
          <mxGeometry x="1535" y="2068" width="120" height="60" as="geometry" />
        </mxCell>
        <mxCell id="0f4xCiVm6X6gQx0xvUL8-182" value="AUTOMAN" style="ellipse;whiteSpace=wrap;html=1;fillColor=#fff2cc;strokeColor=#d6b656;" vertex="1" parent="1">
          <mxGeometry x="1760" y="2068" width="130" height="60" as="geometry" />
        </mxCell>
        <mxCell id="0f4xCiVm6X6gQx0xvUL8-183" style="edgeStyle=orthogonalEdgeStyle;rounded=0;orthogonalLoop=1;jettySize=auto;html=1;exitX=1;exitY=0;exitDx=0;exitDy=0;entryX=1;entryY=1;entryDx=0;entryDy=0;curved=1;" edge="1" parent="1" source="0f4xCiVm6X6gQx0xvUL8-179" target="0f4xCiVm6X6gQx0xvUL8-179">
          <mxGeometry relative="1" as="geometry">
            <Array as="points">
              <mxPoint x="1641" y="1918" />
              <mxPoint x="1720" y="1918" />
              <mxPoint x="1720" y="2018" />
              <mxPoint x="1641" y="2018" />
            </Array>
          </mxGeometry>
        </mxCell>
        <mxCell id="0f4xCiVm6X6gQx0xvUL8-184" value="ERROR WIFI&lt;br&gt;ERROR_NTP&lt;br&gt;ERROR MQTT" style="text;html=1;align=center;verticalAlign=middle;resizable=0;points=[];autosize=1;strokeColor=none;fillColor=none;" vertex="1" parent="1">
          <mxGeometry x="1670" y="1901" width="100" height="60" as="geometry" />
        </mxCell>
        <mxCell id="0f4xCiVm6X6gQx0xvUL8-185" value="ERROR WIFI&lt;br&gt;ERROR_NTP&lt;br&gt;ERROR MQTT" style="text;html=1;align=center;verticalAlign=middle;resizable=0;points=[];autosize=1;strokeColor=none;fillColor=none;" vertex="1" parent="1">
          <mxGeometry x="1920" y="2008" width="100" height="60" as="geometry" />
        </mxCell>
        <mxCell id="0f4xCiVm6X6gQx0xvUL8-186" style="edgeStyle=orthogonalEdgeStyle;rounded=0;orthogonalLoop=1;jettySize=auto;html=1;exitX=1;exitY=0;exitDx=0;exitDy=0;entryX=1;entryY=1;entryDx=0;entryDy=0;curved=1;" edge="1" parent="1" source="0f4xCiVm6X6gQx0xvUL8-182" target="0f4xCiVm6X6gQx0xvUL8-182">
          <mxGeometry relative="1" as="geometry">
            <Array as="points">
              <mxPoint x="1871" y="2048" />
              <mxPoint x="1950" y="2048" />
              <mxPoint x="1950" y="2148" />
              <mxPoint x="1871" y="2148" />
            </Array>
          </mxGeometry>
        </mxCell>
        <mxCell id="0f4xCiVm6X6gQx0xvUL8-187" value="" style="edgeStyle=orthogonalEdgeStyle;rounded=0;orthogonalLoop=1;jettySize=auto;html=1;exitX=0.5;exitY=1;exitDx=0;exitDy=0;entryX=0.5;entryY=0;entryDx=0;entryDy=0;" edge="1" parent="1" source="0f4xCiVm6X6gQx0xvUL8-144" target="0f4xCiVm6X6gQx0xvUL8-163">
          <mxGeometry relative="1" as="geometry">
            <mxPoint x="1115" y="1720" as="sourcePoint" />
            <mxPoint x="1115" y="1830" as="targetPoint" />
          </mxGeometry>
        </mxCell>
        <mxCell id="0f4xCiVm6X6gQx0xvUL8-229" style="edgeStyle=orthogonalEdgeStyle;rounded=0;orthogonalLoop=1;jettySize=auto;html=1;exitX=1;exitY=0.5;exitDx=0;exitDy=0;" edge="1" parent="1" source="0f4xCiVm6X6gQx0xvUL8-163" target="0f4xCiVm6X6gQx0xvUL8-228">
          <mxGeometry relative="1" as="geometry" />
        </mxCell>
        <mxCell id="0f4xCiVm6X6gQx0xvUL8-163" value="PROGRAMA&lt;br&gt;ACTIVO?" style="rhombus;whiteSpace=wrap;html=1;fillColor=#dae8fc;strokeColor=#6c8ebf;shadow=1;" vertex="1" parent="1">
          <mxGeometry x="1040" y="1780" width="150" height="80" as="geometry" />
        </mxCell>
        <mxCell id="0f4xCiVm6X6gQx0xvUL8-194" style="edgeStyle=orthogonalEdgeStyle;rounded=0;orthogonalLoop=1;jettySize=auto;html=1;exitX=0.5;exitY=0;exitDx=0;exitDy=0;entryX=0;entryY=0.5;entryDx=0;entryDy=0;" edge="1" parent="1" source="0f4xCiVm6X6gQx0xvUL8-192" target="0f4xCiVm6X6gQx0xvUL8-142">
          <mxGeometry relative="1" as="geometry">
            <Array as="points">
              <mxPoint x="765" y="1890" />
              <mxPoint x="910" y="1890" />
              <mxPoint x="910" y="1540" />
            </Array>
          </mxGeometry>
        </mxCell>
        <mxCell id="0f4xCiVm6X6gQx0xvUL8-192" value="00:00?" style="rhombus;whiteSpace=wrap;html=1;shadow=1;fillColor=#dae8fc;strokeColor=#6c8ebf;" vertex="1" parent="1">
          <mxGeometry x="690" y="1930" width="150" height="80" as="geometry" />
        </mxCell>
        <mxCell id="0f4xCiVm6X6gQx0xvUL8-195" value="SI" style="text;html=1;align=center;verticalAlign=middle;resizable=0;points=[];autosize=1;strokeColor=none;fillColor=none;" vertex="1" parent="1">
          <mxGeometry x="765" y="1848" width="30" height="30" as="geometry" />
        </mxCell>
        <mxCell id="0f4xCiVm6X6gQx0xvUL8-199" style="edgeStyle=orthogonalEdgeStyle;rounded=0;orthogonalLoop=1;jettySize=auto;html=1;exitX=1;exitY=0.5;exitDx=0;exitDy=0;entryX=0;entryY=0.5;entryDx=0;entryDy=0;" edge="1" parent="1" source="0f4xCiVm6X6gQx0xvUL8-196" target="0f4xCiVm6X6gQx0xvUL8-198">
          <mxGeometry relative="1" as="geometry" />
        </mxCell>
        <mxCell id="0f4xCiVm6X6gQx0xvUL8-203" style="edgeStyle=orthogonalEdgeStyle;rounded=0;orthogonalLoop=1;jettySize=auto;html=1;exitX=0.5;exitY=0;exitDx=0;exitDy=0;" edge="1" parent="1" source="0f4xCiVm6X6gQx0xvUL8-196">
          <mxGeometry relative="1" as="geometry">
            <mxPoint x="740" y="950" as="targetPoint" />
            <Array as="points">
              <mxPoint x="1230" y="1080" />
              <mxPoint x="1230" y="950" />
              <mxPoint x="740" y="950" />
            </Array>
          </mxGeometry>
        </mxCell>
        <mxCell id="0f4xCiVm6X6gQx0xvUL8-204" value="RETRY" style="edgeLabel;html=1;align=center;verticalAlign=middle;resizable=0;points=[];" vertex="1" connectable="0" parent="0f4xCiVm6X6gQx0xvUL8-203">
          <mxGeometry x="-0.6949" y="-4" relative="1" as="geometry">
            <mxPoint as="offset" />
          </mxGeometry>
        </mxCell>
        <mxCell id="0f4xCiVm6X6gQx0xvUL8-196" value="RECOVERY_NTP" style="ellipse;whiteSpace=wrap;html=1;fillColor=#fff2cc;strokeColor=#d6b656;" vertex="1" parent="1">
          <mxGeometry x="1160" y="1080" width="130" height="60" as="geometry" />
        </mxCell>
        <mxCell id="0f4xCiVm6X6gQx0xvUL8-205" style="edgeStyle=orthogonalEdgeStyle;rounded=0;orthogonalLoop=1;jettySize=auto;html=1;exitX=0.5;exitY=1;exitDx=0;exitDy=0;entryX=0.5;entryY=0;entryDx=0;entryDy=0;" edge="1" parent="1" source="0f4xCiVm6X6gQx0xvUL8-198" target="0f4xCiVm6X6gQx0xvUL8-142">
          <mxGeometry relative="1" as="geometry" />
        </mxCell>
        <mxCell id="0f4xCiVm6X6gQx0xvUL8-206" value="TIME VALID" style="edgeLabel;html=1;align=center;verticalAlign=middle;resizable=0;points=[];" vertex="1" connectable="0" parent="0f4xCiVm6X6gQx0xvUL8-205">
          <mxGeometry x="-0.6579" relative="1" as="geometry">
            <mxPoint as="offset" />
          </mxGeometry>
        </mxCell>
        <mxCell id="0f4xCiVm6X6gQx0xvUL8-207" value="SI" style="edgeLabel;html=1;align=center;verticalAlign=middle;resizable=0;points=[];" vertex="1" connectable="0" parent="0f4xCiVm6X6gQx0xvUL8-205">
          <mxGeometry x="-0.8954" y="1" relative="1" as="geometry">
            <mxPoint as="offset" />
          </mxGeometry>
        </mxCell>
        <mxCell id="0f4xCiVm6X6gQx0xvUL8-210" style="edgeStyle=orthogonalEdgeStyle;rounded=0;orthogonalLoop=1;jettySize=auto;html=1;exitX=1;exitY=0.5;exitDx=0;exitDy=0;entryX=0.5;entryY=1;entryDx=0;entryDy=0;" edge="1" parent="1" source="0f4xCiVm6X6gQx0xvUL8-198" target="0f4xCiVm6X6gQx0xvUL8-208">
          <mxGeometry relative="1" as="geometry">
            <mxPoint x="240" y="1200" as="targetPoint" />
            <Array as="points">
              <mxPoint x="1560" y="1110" />
              <mxPoint x="1560" y="1300" />
              <mxPoint x="205" y="1300" />
            </Array>
          </mxGeometry>
        </mxCell>
        <mxCell id="0f4xCiVm6X6gQx0xvUL8-198" value="&amp;gt; 6H" style="rhombus;whiteSpace=wrap;html=1;shadow=1;fillColor=#dae8fc;strokeColor=#6c8ebf;" vertex="1" parent="1">
          <mxGeometry x="1390" y="1070" width="150" height="80" as="geometry" />
        </mxCell>
        <mxCell id="0f4xCiVm6X6gQx0xvUL8-208" value="ERROR_APP" style="ellipse;whiteSpace=wrap;html=1;fillColor=#fff2cc;strokeColor=#d6b656;" vertex="1" parent="1">
          <mxGeometry x="140" y="1110" width="130" height="60" as="geometry" />
        </mxCell>
        <mxCell id="0f4xCiVm6X6gQx0xvUL8-211" value="NO" style="text;html=1;align=center;verticalAlign=middle;resizable=0;points=[];autosize=1;strokeColor=none;fillColor=none;" vertex="1" parent="1">
          <mxGeometry x="1560" y="1155" width="40" height="30" as="geometry" />
        </mxCell>
        <mxCell id="0f4xCiVm6X6gQx0xvUL8-224" value="SI" style="text;html=1;align=center;verticalAlign=middle;resizable=0;points=[];autosize=1;strokeColor=none;fillColor=none;" vertex="1" parent="1">
          <mxGeometry x="675" y="1428" width="30" height="30" as="geometry" />
        </mxCell>
        <mxCell id="0f4xCiVm6X6gQx0xvUL8-226" value="NO" style="text;html=1;align=center;verticalAlign=middle;resizable=0;points=[];autosize=1;strokeColor=none;fillColor=none;" vertex="1" parent="1">
          <mxGeometry x="1200" y="1788" width="40" height="30" as="geometry" />
        </mxCell>
        <mxCell id="0f4xCiVm6X6gQx0xvUL8-231" style="edgeStyle=orthogonalEdgeStyle;rounded=0;orthogonalLoop=1;jettySize=auto;html=1;exitX=0.5;exitY=1;exitDx=0;exitDy=0;entryX=0.75;entryY=0;entryDx=0;entryDy=0;" edge="1" parent="1" source="0f4xCiVm6X6gQx0xvUL8-228" target="0f4xCiVm6X6gQx0xvUL8-165">
          <mxGeometry relative="1" as="geometry" />
        </mxCell>
        <mxCell id="0f4xCiVm6X6gQx0xvUL8-232" style="edgeStyle=orthogonalEdgeStyle;rounded=0;orthogonalLoop=1;jettySize=auto;html=1;exitX=1;exitY=0.5;exitDx=0;exitDy=0;entryX=0.5;entryY=0;entryDx=0;entryDy=0;" edge="1" parent="1" source="0f4xCiVm6X6gQx0xvUL8-228" target="0f4xCiVm6X6gQx0xvUL8-179">
          <mxGeometry relative="1" as="geometry" />
        </mxCell>
        <mxCell id="0f4xCiVm6X6gQx0xvUL8-228" value="NEXT INTERVAL" style="rounded=0;whiteSpace=wrap;html=1;shadow=1;fillColor=#dae8fc;strokeColor=#6c8ebf;" vertex="1" parent="1">
          <mxGeometry x="1310" y="1790" width="120" height="60" as="geometry" />
        </mxCell>
        <mxCell id="0f4xCiVm6X6gQx0xvUL8-234" value="&amp;gt; 0 PROGRAMAS" style="text;html=1;align=center;verticalAlign=middle;resizable=0;points=[];autosize=1;strokeColor=none;fillColor=none;" vertex="1" parent="1">
          <mxGeometry x="1110" y="1740" width="120" height="30" as="geometry" />
        </mxCell>
        <mxCell id="0f4xCiVm6X6gQx0xvUL8-236" style="edgeStyle=orthogonalEdgeStyle;rounded=0;orthogonalLoop=1;jettySize=auto;html=1;exitX=0;exitY=0.5;exitDx=0;exitDy=0;entryX=0.5;entryY=0;entryDx=0;entryDy=0;" edge="1" parent="1" source="0f4xCiVm6X6gQx0xvUL8-235" target="0f4xCiVm6X6gQx0xvUL8-142">
          <mxGeometry relative="1" as="geometry" />
        </mxCell>
        <mxCell id="0f4xCiVm6X6gQx0xvUL8-235" value="NUEVO PROGRAMA&lt;br&gt;MODIFICAR PROGRAMA&lt;br&gt;BORRAR PROGRAMA" style="rounded=0;whiteSpace=wrap;html=1;shadow=1;fillColor=#dae8fc;strokeColor=#6c8ebf;" vertex="1" parent="1">
          <mxGeometry x="1650" y="1413" width="170" height="60" as="geometry" />
        </mxCell>
        <mxCell id="0f4xCiVm6X6gQx0xvUL8-246" value="&lt;h1&gt;Factory&lt;/h1&gt;&lt;p&gt;EnseÃ±amos texto configura dispositivo y pasamos a usarlo como termostato&lt;span style=&quot;text-align: center;&quot;&gt;.&lt;/span&gt;&lt;br&gt;&lt;/p&gt;" style="text;html=1;strokeColor=#d79b00;fillColor=#ffe6cc;spacing=5;spacingTop=-20;whiteSpace=wrap;overflow=hidden;rounded=1;fillStyle=solid;glass=0;shadow=1;" vertex="1" parent="1">
          <mxGeometry x="930" y="310" width="240" height="120" as="geometry" />
        </mxCell>
        <mxCell id="0f4xCiVm6X6gQx0xvUL8-248" value="OK" style="text;html=1;align=center;verticalAlign=middle;resizable=0;points=[];autosize=1;strokeColor=#B20000;fillColor=#e51400;fontColor=#ffffff;fillStyle=solid;rounded=1;arcSize=50;" vertex="1" parent="1">
          <mxGeometry x="725" y="150" width="40" height="30" as="geometry" />
        </mxCell>
        <mxCell id="0f4xCiVm6X6gQx0xvUL8-249" value="OK" style="text;html=1;align=center;verticalAlign=middle;resizable=0;points=[];autosize=1;strokeColor=#B20000;fillColor=#e51400;fontColor=#ffffff;fillStyle=solid;rounded=1;arcSize=50;" vertex="1" parent="1">
          <mxGeometry x="720" y="310" width="40" height="30" as="geometry" />
        </mxCell>
        <mxCell id="0f4xCiVm6X6gQx0xvUL8-250" value="OK" style="text;html=1;align=center;verticalAlign=middle;resizable=0;points=[];autosize=1;strokeColor=#B20000;fillColor=#e51400;fontColor=#ffffff;fillStyle=solid;rounded=1;arcSize=50;" vertex="1" parent="1">
          <mxGeometry x="460" y="150" width="40" height="30" as="geometry" />
        </mxCell>
        <mxCell id="0f4xCiVm6X6gQx0xvUL8-251" value="OK" style="text;html=1;align=center;verticalAlign=middle;resizable=0;points=[];autosize=1;strokeColor=#B20000;fillColor=#e51400;fontColor=#ffffff;fillStyle=solid;rounded=1;arcSize=50;" vertex="1" parent="1">
          <mxGeometry x="190" y="60" width="40" height="30" as="geometry" />
        </mxCell>
        <mxCell id="0f4xCiVm6X6gQx0xvUL8-252" value="OK" style="text;html=1;align=center;verticalAlign=middle;resizable=0;points=[];autosize=1;strokeColor=#B20000;fillColor=#e51400;fontColor=#ffffff;fillStyle=solid;rounded=1;arcSize=50;" vertex="1" parent="1">
          <mxGeometry x="880" y="440" width="40" height="30" as="geometry" />
        </mxCell>
        <mxCell id="0f4xCiVm6X6gQx0xvUL8-253" value="OK" style="text;html=1;align=center;verticalAlign=middle;resizable=0;points=[];autosize=1;strokeColor=#B20000;fillColor=#e51400;fontColor=#ffffff;fillStyle=solid;rounded=1;arcSize=50;" vertex="1" parent="1">
          <mxGeometry x="470" y="450" width="40" height="30" as="geometry" />
        </mxCell>
        <mxCell id="0f4xCiVm6X6gQx0xvUL8-254" value="OK" style="text;html=1;align=center;verticalAlign=middle;resizable=0;points=[];autosize=1;strokeColor=#B20000;fillColor=#e51400;fontColor=#ffffff;fillStyle=solid;rounded=1;arcSize=50;" vertex="1" parent="1">
          <mxGeometry x="90" y="250" width="40" height="30" as="geometry" />
        </mxCell>
        <mxCell id="0f4xCiVm6X6gQx0xvUL8-255" value="OK" style="text;html=1;align=center;verticalAlign=middle;resizable=0;points=[];autosize=1;strokeColor=#B20000;fillColor=#e51400;fontColor=#ffffff;fillStyle=solid;rounded=1;arcSize=50;" vertex="1" parent="1">
          <mxGeometry x="735" y="470" width="40" height="30" as="geometry" />
        </mxCell>
        <mxCell id="0f4xCiVm6X6gQx0xvUL8-256" value="OK" style="text;html=1;align=center;verticalAlign=middle;resizable=0;points=[];autosize=1;strokeColor=#B20000;fillColor=#e51400;fontColor=#ffffff;fillStyle=solid;rounded=1;arcSize=50;" vertex="1" parent="1">
          <mxGeometry x="700" y="40" width="40" height="30" as="geometry" />
        </mxCell>
      </root>
    </mxGraphModel>
  </diagram>
</mxfile>
